<svg version="1.2" xmlns="http://www.w3.org/2000/svg" viewBox="0 0 269 216" width="269" height="216">
	<title>Bracketi-01-svg</title>
	<style>
		.s0 { fill: none } 
		.s1 { fill: #0162f9 } 
		.s2 { fill: #2e3192 } 
	</style>
	<g id="Layer">
		<path id="Layer" fill-rule="evenodd" class="s0" d="m176.2 141.7l2.6 3.2-28.6 34.9h42.9c19.9 0 36.1-16.2 36.1-36 0-11.2-5.2-21.3-13.2-27.9-9.8 12.7-23.8 22-39.8 25.8z"/>
		<path id="Layer" class="s1" d="m130 143.7l0.1 0.1z"/>
		<path id="Layer" class="s2" d="m195.2 71.9c0 7.7-2.4 14.7-6.4 20.5 4-5.8 6.4-12.9 6.4-20.5z"/>
		<path id="Layer" class="s1" d="m231.1 71.9q0 5.3-0.8 10.4c-0.9 6.3-2.6 12.3-5 17.9-2.5 5.7-5.6 10.9-9.3 15.7-4.9 6.3-10.9 11.8-17.6 16.2-6.7 4.4-14.2 7.7-22.2 9.6l-27.8-33.8h10.8q1.6 0 3.2-0.1c10.9-1 20.4-6.9 26.4-15.4 2-2.9 3.6-6.1 4.7-9.5 1.1-3.5 1.7-7.2 1.7-11 0-19.9-16.1-36-36-36h-82.5l-28.8 35 29.8 37 29 35.9h-47.8l-58.9-73.1 58-70.7h101.2c39.6 0 71.9 32.2 71.9 71.9z"/>
		<path id="Layer" class="s2" d="m230.3 82.3c-1.8 12.5-6.9 24.1-14.3 33.6 8 6.6 13.2 16.7 13.2 27.9 0 19.8-16.2 36-36.1 36h-42.9l28.6-34.9-2.6-3.2-27.8-33.8-29.5-36h-48.7l59.8 71.8 0.1 0.1 0.7 0.9-28.7 35.1-20.3 24.7-9.2 11.2h120.5c39.7 0 71.9-32.3 71.9-71.9 0-26-13.9-48.9-34.7-61.5z"/>
	</g>
</svg>